# xmcd
#
# Track frame offsets:
#	150
#	16845
#	33086
#	48209
#	67895
#	84749
#	101471
#	116657
#	132710
#	150066
#
# Disc length: 2247 seconds
#
# Revision: 0
# Processed by: cddbd v1.5.2PL0 Copyright (c) Steve Scherf et al.
# Submitted via: EasyCDDAExtractor 9.1.3.1
#
DISCID=6e08c50a
DTITLE=Kim McAbee - That's What I'm Talkin' About
DYEAR=2006
DGENRE=Country
TTITLE0=It Ain't Workin' On Me
TTITLE1=Doesn't Always Have To End This Way
TTITLE2=Barely
TTITLE3=That Wall's Too High To Climb
TTITLE4=Dirt Road Heartache
TTITLE5=I'll Still Be Waiting For You
TTITLE6=You Should've Been There
TTITLE7=It's Just A Cup Of Coffee
TTITLE8=American Boys
TTITLE9=That's What I'm Talkin' About
EXTD=
EXTT0=
EXTT1=
EXTT2=
EXTT3=
EXTT4=
EXTT5=
EXTT6=
EXTT7=
EXTT8=
EXTT9=
PLAYORDER=
